HIERARCHY
ROOT hips
{
  OFFSET 4.514983404067499e-9 10.105397940993303 1.318478203070619
  CHANNELS 6 Xposition Yposition Zposition Yrotation Xrotation Zrotation
  JOINT spine
  {
    OFFSET -3.891297943093837e-9 0.5743022203102706 0
    CHANNELS 3 Yrotation Xrotation Zrotation
    JOINT chest
    {
      OFFSET 0 1.2550312016247926 0
      CHANNELS 3 Yrotation Xrotation Zrotation
      JOINT upperChest
      {
        OFFSET 0 1.2059856050120283 0
        CHANNELS 3 Yrotation Xrotation Zrotation
        JOINT neck
        {
          OFFSET 0 1.5290392449770056 0
          CHANNELS 3 Yrotation Xrotation Zrotation
          JOINT head
          {
            OFFSET 0 0.8186276690878121 0
            CHANNELS 3 Yrotation Xrotation Zrotation
            JOINT leftEye
            {
              OFFSET 0.4540883942785781 -0.2684596961258452 0.6133497327236779
              CHANNELS 3 Yrotation Xrotation Zrotation
              End Site
              {
                OFFSET 0.4540883942785781 -0.2684596961258452 0.6133497327236779
              }
            }
            JOINT rightEye
            {
              OFFSET -0.4540889229417456 -0.26846010916843954 0.6133525398671689
              CHANNELS 3 Yrotation Xrotation Zrotation
              End Site
              {
                OFFSET -0.4540889229417456 -0.26846010916843954 0.6133525398671689
              }
            }
          }
        }
        JOINT leftShoulder
        {
          OFFSET 1.1700010731725468 -0.4176065950681176 0
          CHANNELS 3 Yrotation Xrotation Zrotation
          JOINT leftUpperArm
          {
            OFFSET 1.1803911524554955 0 0
            CHANNELS 3 Yrotation Xrotation Zrotation
            JOINT leftLowerArm
            {
              OFFSET 2.4406171707858904 0 0
              CHANNELS 3 Yrotation Xrotation Zrotation
              JOINT leftHand
              {
                OFFSET 2.3832177068873874 0 0
                CHANNELS 3 Yrotation Xrotation Zrotation
                JOINT leftIndexProximal
                {
                  OFFSET 0.7310175006235151 0.08192774217833776 0.20404791572985242
                  CHANNELS 3 Yrotation Xrotation Zrotation
                  JOINT leftIndexIntermediate
                  {
                    OFFSET 0.3688845439429529 -0.010662034455094949 -0.014226011560394963
                    CHANNELS 3 Yrotation Xrotation Zrotation
                    JOINT leftIndexDistal
                    {
                      OFFSET 0.2271119941018298 -0.007897656478952575 -0.007580683836364496
                      CHANNELS 3 Yrotation Xrotation Zrotation
                      End Site
                      {
                        OFFSET 0.2271119941018298 -0.007897656478952575 -0.007580683836364496
                      }
                    }
                  }
                }
                JOINT leftLittleProximal
                {
                  OFFSET 0.678269929308182 0.08192620621401336 -0.323876516389586
                  CHANNELS 3 Yrotation Xrotation Zrotation
                  JOINT leftLittleIntermediate
                  {
                    OFFSET 0.34904545821382604 -0.0000017106393073174075 8.629360392919949e-9
                    CHANNELS 3 Yrotation Xrotation Zrotation
                    JOINT leftLittleDistal
                    {
                      OFFSET 0.2011060672849896 0.0031247840072243793 0.0038660318003989197
                      CHANNELS 3 Yrotation Xrotation Zrotation
                      End Site
                      {
                        OFFSET 0.2011060672849896 0.0031247840072243793 0.0038660318003989197
                      }
                    }
                  }
                }
                JOINT leftMiddleProximal
                {
                  OFFSET 0.7368181082522638 0.0819260272939426 0.02272335773438093
                  CHANNELS 3 Yrotation Xrotation Zrotation
                  JOINT leftMiddleIntermediate
                  {
                    OFFSET 0.41136739116025356 -0.0000015892429323649537 5.27860346960507e-8
                    CHANNELS 3 Yrotation Xrotation Zrotation
                    JOINT leftMiddleDistal
                    {
                      OFFSET 0.25378150303820757 -0.0000015332469289752737 1.3442958385345705e-8
                      CHANNELS 3 Yrotation Xrotation Zrotation
                      End Site
                      {
                        OFFSET 0.25378150303820757 -0.0000015332469289752737 1.3442958385345705e-8
                      }
                    }
                  }
                }
                JOINT leftRingProximal
                {
                  OFFSET 0.7284256823094712 0.08192611199801392 -0.1508405069143483
                  CHANNELS 3 Yrotation Xrotation Zrotation
                  JOINT leftRingIntermediate
                  {
                    OFFSET 0.381593741461262 -0.0000016975471202052006 6.592486757883709e-8
                    CHANNELS 3 Yrotation Xrotation Zrotation
                    JOINT leftRingDistal
                    {
                      OFFSET 0.22014536669820362 -0.0027420652959939673 -0.005037497035641991
                      CHANNELS 3 Yrotation Xrotation Zrotation
                      End Site
                      {
                        OFFSET 0.22014536669820362 -0.0027420652959939673 -0.005037497035641991
                      }
                    }
                  }
                }
                JOINT leftThumbProximal
                {
                  OFFSET 0.10842212958334652 -0.16573713992498873 -0.07779936144556289
                  CHANNELS 3 Yrotation Xrotation Zrotation
                  JOINT leftThumbIntermediate
                  {
                    OFFSET 0.40720553822379024 -0.01751267955631075 0.31852684427382305
                    CHANNELS 3 Yrotation Xrotation Zrotation
                    JOINT leftThumbDistal
                    {
                      OFFSET 0.23412859218032667 -0.01859690713588802 0.2146635043319005
                      CHANNELS 3 Yrotation Xrotation Zrotation
                      End Site
                      {
                        OFFSET 0.23412859218032667 -0.01859690713588802 0.2146635043319005
                      }
                    }
                  }
                }
              }
            }
          }
        }
        JOINT rightShoulder
        {
          OFFSET -1.1700037144859516 -0.41760703856471126 0
          CHANNELS 3 Yrotation Xrotation Zrotation
          JOINT rightUpperArm
          {
            OFFSET -1.1803910289368023 0 0
            CHANNELS 3 Yrotation Xrotation Zrotation
            JOINT rightLowerArm
            {
              OFFSET -2.440617418222133 0 0
              CHANNELS 3 Yrotation Xrotation Zrotation
              JOINT rightHand
              {
                OFFSET -2.3832181162662343 0 0
                CHANNELS 3 Yrotation Xrotation Zrotation
                JOINT rightIndexProximal
                {
                  OFFSET -0.7310168852843362 0.08192787643494381 0.20404785424302163
                  CHANNELS 3 Yrotation Xrotation Zrotation
                  JOINT rightIndexIntermediate
                  {
                    OFFSET -0.3688846010723953 -0.01066191355993129 -0.014226020535245201
                    CHANNELS 3 Yrotation Xrotation Zrotation
                    JOINT rightIndexDistal
                    {
                      OFFSET -0.22711216276130997 -0.007898902439410271 -0.007580718044857868
                      CHANNELS 3 Yrotation Xrotation Zrotation
                      End Site
                      {
                        OFFSET -0.22711216276130997 -0.007898902439410271 -0.007580718044857868
                      }
                    }
                  }
                }
                JOINT rightLittleProximal
                {
                  OFFSET -0.6782685897119165 0.08192501740206293 -0.3238766118101876
                  CHANNELS 3 Yrotation Xrotation Zrotation
                  JOINT rightLittleIntermediate
                  {
                    OFFSET -0.34904682243945895 -2.664019085329983e-7 3.792712677253007e-8
                    CHANNELS 3 Yrotation Xrotation Zrotation
                    JOINT rightLittleDistal
                    {
                      OFFSET -0.20110609302945537 0.0031260842677420797 0.0038661724369087186
                      CHANNELS 3 Yrotation Xrotation Zrotation
                      End Site
                      {
                        OFFSET -0.20110609302945537 0.0031260842677420797 0.0038661724369087186
                      }
                    }
                  }
                }
                JOINT rightMiddleProximal
                {
                  OFFSET -0.7368168209984411 0.08192485183145659 0.022723294831187846
                  CHANNELS 3 Yrotation Xrotation Zrotation
                  JOINT rightMiddleIntermediate
                  {
                    OFFSET -0.4113687575187084 -9.03141548214137e-8 4.759541079313312e-8
                    CHANNELS 3 Yrotation Xrotation Zrotation
                    JOINT rightMiddleDistal
                    {
                      OFFSET -0.2537822083525749 -9.554208624251714e-8 -1.6364827826187422e-9
                      CHANNELS 3 Yrotation Xrotation Zrotation
                      End Site
                      {
                        OFFSET -0.2537822083525749 -9.554208624251714e-8 -1.6364827826187422e-9
                      }
                    }
                  }
                }
                JOINT rightRingProximal
                {
                  OFFSET -0.7284243957721679 0.08192492753028224 -0.15084062217729294
                  CHANNELS 3 Yrotation Xrotation Zrotation
                  JOINT rightRingIntermediate
                  {
                    OFFSET -0.381595106800805 -2.5662436442530634e-7 2.929475539925619e-8
                    CHANNELS 3 Yrotation Xrotation Zrotation
                    JOINT rightRingDistal
                    {
                      OFFSET -0.22014544912608125 -0.002738002524970362 -0.0050375115645966
                      CHANNELS 3 Yrotation Xrotation Zrotation
                      End Site
                      {
                        OFFSET -0.22014544912608125 -0.002738002524970362 -0.0050375115645966
                      }
                    }
                  }
                }
                JOINT rightThumbProximal
                {
                  OFFSET -0.10842026863657162 -0.16573778435706465 -0.07779917642461898
                  CHANNELS 3 Yrotation Xrotation Zrotation
                  JOINT rightThumbIntermediate
                  {
                    OFFSET -0.40720600760521597 -0.017512298079938038 0.3185267362029824
                    CHANNELS 3 Yrotation Xrotation Zrotation
                    JOINT rightThumbDistal
                    {
                      OFFSET -0.2341289751103648 -0.018594162598156494 0.21466399510514025
                      CHANNELS 3 Yrotation Xrotation Zrotation
                      End Site
                      {
                        OFFSET -0.2341289751103648 -0.018594162598156494 0.21466399510514025
                      }
                    }
                  }
                }
              }
            }
          }
        }
      }
    }
  }
  JOINT leftUpperLeg
  {
    OFFSET -0.8565189721517369 0.4427277044191169 0
    CHANNELS 3 Yrotation Xrotation Zrotation
    JOINT leftLowerLeg
    {
      OFFSET 0 -3.918486704769693 0
      CHANNELS 3 Yrotation Xrotation Zrotation
      JOINT leftFoot
      {
        OFFSET 6.174701361744139e-7 -0.055233446196002234 4.612027801972084
        CHANNELS 3 Yrotation Xrotation Zrotation
        JOINT leftToes
        {
          OFFSET -3.4372540951010944e-7 -0.705284859504459 1.2256624571888697
          CHANNELS 3 Yrotation Xrotation Zrotation
          End Site
          {
            OFFSET -3.4372540951010944e-7 -0.705284859504459 1.2256624571888697
          }
        }
      }
    }
  }
  JOINT rightUpperLeg
  {
    OFFSET 0.8565189732197466 0.44272769569168136 0
    CHANNELS 3 Yrotation Xrotation Zrotation
    JOINT rightLowerLeg
    {
      OFFSET 0 -3.918486692649319 0
      CHANNELS 3 Yrotation Xrotation Zrotation
      JOINT rightFoot
      {
        OFFSET 6.995136552362391e-7 -0.05523244834012664 4.612028499942008
        CHANNELS 3 Yrotation Xrotation Zrotation
        JOINT rightToes
        {
          OFFSET -4.2566694985479714e-7 -0.7052846587611067 1.22566236096697
          CHANNELS 3 Yrotation Xrotation Zrotation
          End Site
          {
            OFFSET -4.2566694985479714e-7 -0.7052846587611067 1.22566236096697
          }
        }
      }
    }
  }
}
MOTION
Frames: 4
Frame Time: 0.03333333333333333
0.05183468759059906 -1.3957173837423262 -0.4966852068901062 -41.20195829457889 -5.421250338480938 12.955917573777311 -0.8518790104801157 5.564563365132808 -3.459264530100198 -3.6433889625214504 22.17085633976713 -8.029242369150444 0 0 0 7.741852170045237 10.947516851788485 -4.120458562551201 29.124919356410548 -14.979842832698749 -15.847460690308019 0 0 0 0 0 0 -16.80003030481795 0.78003372663093 -7.8325889998931535 12.156538036285136 -15.005980406690691 -33.79870916812056 -32.80373271560054 1.1743501151680948 -2.615557186681579 -7.0064949406099295 16.057633611233904 25.02375700198116 -8.999565350895773 -2.664961244813934 -4.7259245440744975 0.3794675245626244 0.17984559281566692 -17.13740881567602 1.8275090622015082e-7 -0.00000589872490333462 -0.000004121197672730232 13.222574079301797 3.737082415213067 -33.50474444387015 -3.854499513801204 -2.2238198820924184 -28.105381495138534 4.171116073730225e-11 5.950788745874541e-26 -1.634838641478621e-13 0.9688907980954893 -0.22668021583247344 -9.018873113577085 -1.9545257167956473 -0.5709058995989384 -22.46761019392536 1.139979627027678e-10 1.2722218725854067e-14 -1.43444452663829e-12 9.768556430686765 0.5702253548986054 -18.492235337450648 -3.1527475131760596 -0.9676546739579198 -33.90258891142572 -0.0000042692549867072275 0.000010183200956081008 -0.0000011892422696123962 -2.481919491051273 6.215591622495955 -6.894466729823653 0.04422703277701291 -0.27042001263683424 0.8016645575260327 0.000004587613752548001 -0.000006320224019496644 -0.000012837849648742392 21.84575328214594 -0.6467284336913202 7.586752393354892 -1.6112957503124892 -10.302491743352698 39.87363543838881 51.314329294678025 6.102106999492558 7.342099594946076 -6.604504692178973 13.198388633522535 -18.976964940979144 -2.0558500736795517 -1.2994423993315358 -2.9511386228861523 -0.6029176100595617 0.34881185807211823 19.049926120440933 3.933694872703174e-10 3.1805546814635168e-15 -4.874754472204794e-12 -8.972021969298389 3.9627639735634808 26.12244525966554 7.597216815526929 -1.3767149438172095 29.575525219986755 1.6628260911929426e-9 -3.1805543023118527e-15 -2.179830267765673e-11 -2.5695297795633505 -0.7640901373424303 15.098944843768486 1.2116541119902215 -0.25737573371656586 19.364217273599586 1.215836204053751e-9 -3.180554491887685e-15 -1.6036856771618462e-11 -6.518784653832821 2.632904075114961 23.836211096814345 3.252813760336685 -0.6141397347177193 26.147563787936466 -4.3803240153668535e-10 2.0219334966109398e-23 5.2894833502657416e-12 3.5197332285871004 -13.612383095572088 0.5915026436137684 -14.852386031258964 8.44022274660335 -4.2701314184902435 0.0000033205163896653747 0.000011007848253003898 -0.000012232382771583558 12.546339398908435 -31.498613049220044 4.678967113584281 13.253888005629506 32.58088925955611 4.73044167749715 -1.1454084777129323 6.272263637677497 -10.85791813547513 -0.11111659720738266 0.4187735121771831 -1.6043008070830205 -29.117808678357484 -37.16849822979188 2.190825034310696 2.8738276660292215 64.41124860876626 -15.642052639278276 4.709462649242924 -26.76370257531002 -2.0540687694248247 0.013607700871848798 0.020872780088291465 0.015393591999916668
0.05422912910580635 -1.3624398721456465 -0.49423274397850037 -40.700063647879 -5.288781629266699 12.783871935669225 -1.0111150100276705 5.570181658198913 -3.396266547584635 -4.244918702916777 22.179978304110982 -7.993767474632813 0 0 0 7.834288778493147 10.869952665666439 -4.142005040673036 29.468797089580356 -15.359622494158645 -16.055139150987088 0 0 0 0 0 0 -17.049264333026006 0.7712741668383749 -7.764640408428592 11.954762786127791 -15.497164974663626 -32.42007775364209 -32.7932002136791 0.8414986191142833 -2.867463952671313 -6.69963689746402 15.383995384772348 26.252369359305778 -9.224914146090116 -2.7127393687552126 -4.462391473019287 0.45950244504037924 0.20870917798577202 -16.52354231805464 1.8275090622015082e-7 -0.00000589872490333462 -0.000004121197672730232 13.2634920645937 3.7528425789819693 -33.424805412685494 -3.8493353307418077 -2.230335681547451 -28.199849737396974 4.171116073730225e-11 5.950788745874541e-26 -1.634838641478621e-13 0.9496288920684534 -0.2340801986537765 -8.898868244133846 -1.8351716429316647 -0.5183583448652144 -21.42314733939168 1.139979627027678e-10 1.2722218725854067e-14 -1.43444452663829e-12 9.769699153376372 0.5511325678227104 -18.199620448208343 -3.139493685142542 -0.9624029009614025 -33.70837714276483 -0.0000042692549867072275 0.000010183200956081008 -0.0000011892422696123962 -2.8823897439125044 5.9313438520397 -7.040282187788747 0.04422703277701291 -0.27042001263683424 0.8016645575260327 0.000004587613752548001 -0.000006320224019496644 -0.000012837849648742392 21.607711333752796 -0.6389161799510186 7.6110939576261325 -1.7628285212671782 -9.770450334344753 40.31171802671154 51.67432978040017 6.118573366302286 7.4764477834276395 -6.959155138505113 13.054660336903563 -19.391016691883436 -2.104286246504591 -1.301987620799775 -3.4239190834204543 -0.595855571640276 0.3435457928225785 19.00120642181504 3.933694872703174e-10 3.1805546814635168e-15 -4.874754472204794e-12 -8.999992607755184 3.978024236711232 25.849682975390156 7.556628771856525 -1.3543572270257598 29.086390821366145 1.6628260911929426e-9 -3.1805543023118527e-15 -2.179830267765673e-11 -2.596346144442075 -0.756549264712869 14.826803534767999 1.1627011416844908 -0.24022654110579553 18.874936349404873 1.215836204053751e-9 -3.180554491887685e-15 -1.6036856771618462e-11 -6.545860910130926 2.6447881863407825 23.56260740798559 3.2088995883393148 -0.5930749026011202 25.65820219978558 -4.3803240153668535e-10 2.0219334966109398e-23 5.2894833502657416e-12 3.844421346876311 -13.823557720424553 0.5753473625660168 -14.870062244659419 8.450890214541936 -4.2745596833535675 0.0000033205163896653747 0.000011007848253003898 -0.000012232382771583558 12.905313765212412 -31.424773209355173 4.8208234528275105 12.64492771623891 31.31433216431372 4.1620017510009175 -1.0659641368619717 4.92030324384724 -11.739789590378898 -0.09555786224295831 0.3915085027239127 -1.499761828143088 -29.848830879472317 -36.946042706908614 3.0134445445478644 1.7836623567210639 63.25201364713837 -16.682765594466204 5.103200097868998 -25.988248610648967 -2.2508399795261886 0.013877811024551082 0.021380423594198908 0.015478248996975247
0.06477679312229156 -1.295652152419084 -0.4980539381504059 -39.80699649062723 -4.888111247758294 12.489196234788793 -1.3203473833132178 5.5856402836518795 -3.3220324883116774 -5.432496376885846 22.207834662541302 -8.126909503596453 0 0 0 8.035608464061438 10.689472262626175 -4.016856945104199 30.347963551089283 -16.153730646933226 -16.66561776839272 0 0 0 0 0 0 -17.740294914641616 0.7523815274983633 -7.55924526427413 11.673157050307315 -16.54629506181967 -29.435328155362484 -32.86621458361814 0.06155058837938675 -3.1935347111092938 -5.802064662952961 14.036684130619555 27.83792814456457 -9.692475628309792 -2.8043162417566463 -3.8962872210122326 0.632004197980496 0.2688932616854447 -15.204199270402501 1.8275090622015082e-7 -0.00000589872490333462 -0.000004121197672730232 13.346932712163433 3.779908458146038 -33.231372860158004 -3.8423304115634815 -2.240519773299434 -28.37076788899984 4.171116073730225e-11 5.950788745874541e-26 -1.634838641478621e-13 0.9079438729929287 -0.2502222143134548 -8.648978113097455 -1.5773382450393667 -0.41349168896965033 -19.192439478405085 1.139979627027678e-10 1.2722218725854067e-14 -1.43444452663829e-12 9.771590716950186 0.5110738142529313 -17.57906540993103 -3.1105971898652207 -0.9486587557710991 -33.26326972474715 -0.0000042692549867072275 0.000010183200956081008 -0.0000011892422696123962 -3.6862556263861204 5.359364948843125 -7.32892826148975 0.04422703277701291 -0.27042001263683424 0.8016645575260327 0.000004587613752548001 -0.000006320224019496644 -0.000012837849648742392 21.02011237232981 -0.6102945455936453 7.659478864766722 -2.12328922807902 -8.576934475756234 41.363180044115886 52.466939626535044 6.249657480603693 7.77126615689025 -7.282427646435754 12.974779211670866 -19.71433077850332 -2.1946030346551395 -1.3071871694235615 -4.294153948111368 -0.5821430743160494 0.33339638149401063 18.91659180953762 3.933694872703174e-10 3.1805546814635168e-15 -4.874754472204794e-12 -9.050923375531129 4.006461577574209 25.347208982603494 7.481855667563365 -1.3143288270108566 28.190962412049107 1.6628260911929426e-9 -3.1805543023118527e-15 -2.179830267765673e-11 -2.649159697794457 -0.7418042404655858 14.324872187747674 1.0726347673039933 -0.21017951943059518 17.979244580451972 1.215836204053751e-9 -3.180554491887685e-15 -1.6036856771618462e-11 -6.595745689298256 2.6659080368940082 23.057579069204674 3.1285873918667177 -0.554128011910716 24.762224792598683 -4.3803240153668535e-10 2.0219334966109398e-23 5.2894833502657416e-12 4.447149755675898 -14.215683741533862 0.5439308868053092 -14.935198588968154 8.489783789459578 -4.291047294234882 0.0000033205163896653747 0.000011007848253003898 -0.000012232382771583558 13.359766723602933 -31.654916908867637 5.208856307152469 11.550819147352389 29.97396112529296 2.8458094768567856 0.0756442097242964 2.620925209123571 -14.371700176889059 -0.06567521308204641 0.33378119980695337 -1.2785323458027193 -31.009747063104452 -36.65605038813047 4.55461469750794 0.433222610018869 60.90842537857511 -17.761856274670464 5.649515784425515 -24.28535997574901 -2.7488131783346548 0.014485246829915366 0.022266132107635162 0.015667556636347082
0.09249875694513321 -1.2159030450582442 -0.4798300564289093 -38.595158188466186 -3.756814321960289 12.334365784060834 -1.6748824979797958 5.485155093271344 -3.2648701152879074 -6.902902831374708 21.729542832859668 -8.726979344152062 0 0 0 8.239019423236329 10.415343950644209 -3.5976100087210816 30.900517339546457 -17.579281947827717 -16.476983677907647 0 0 0 0 0 0 -18.616654213267807 0.7675230409201227 -7.0429395958733005 10.454832613593492 -18.348211145254925 -24.90580856060761 -31.925966427785294 -0.14781152739244718 -3.898649404236363 -5.140527312575637 12.980461936524136 30.898783824362493 -10.415684988309978 -2.9281627226461167 -2.982556381099025 0.9150994329730199 0.35577141878787144 -13.067169680874533 1.8275090622015082e-7 -0.00000589872490333462 -0.000004121197672730232 13.471927476528435 3.814015595780106 -32.883097456448795 -3.8413377646475553 -2.247467988860362 -28.58994003613559 4.171116073730225e-11 5.950788745874541e-26 -1.634838641478621e-13 0.8413033881180005 -0.2759377209457831 -8.264110676401227 -1.1552534357197877 -0.2677533012845338 -15.612421104090211 1.139979627027678e-10 1.2722218725854067e-14 -1.43444452663829e-12 9.773558352546853 0.44893852041608534 -16.602007414623067 -3.062251852432975 -0.9231136419547953 -32.49465995989684 -0.0000042692549867072275 0.000010183200956081008 -0.0000011892422696123962 -4.864022977187752 4.509892686057028 -7.7370812141175485 0.04422703277701291 -0.27042001263683424 0.8016645575260327 0.000004587613752548001 -0.000006320224019496644 -0.000012837849648742392 20.1138285671821 -0.5975800824362396 7.983862369305488 -3.715182374137894 -6.454215643601059 43.308334264204646 53.9414761432808 5.824766978982626 7.488130973026271 -7.511965080549217 12.935400599587549 -19.851025423112706 -2.310974845714042 -1.314225279715546 -5.382254835038863 -0.5635133529013528 0.3196124357014875 18.823906969332523 3.933694872703174e-10 3.1805546814635168e-15 -4.874754472204794e-12 -9.11254926349604 4.042952207967029 24.720518548173473 7.390081403444866 -1.2660780615757257 27.09547399289805 1.6628260911929426e-9 -3.1805543023118527e-15 -2.179830267765673e-11 -2.72169360978013 -0.7220521762463947 13.69556930799211 0.9618768841659925 -0.17504938963294936 16.88323149844539 1.215836204053751e-9 -3.180554491887685e-15 -1.6036856771618462e-11 -6.661777149652064 2.6932398953298464 22.42417338495803 3.0297063067368657 -0.5078587491275759 23.66618497988338 -4.3803240153668535e-10 2.0219334966109398e-23 5.2894833502657416e-12 5.20990131465578 -14.712093385635072 0.5021346792112952 -15.125021422700732 8.597205758781742 -4.344398879911259 0.0000033205163896653747 0.000011007848253003898 -0.000012232382771583558 14.356833041898385 -35.50144757360838 3.89104443793301 10.70452873329175 37.70232111351961 2.27290309423923 0.9120332172100328 -1.217135413893661 -14.172094292283893 -0.0005678746904083844 -0.006895903910759581 -1.507133807180787 -31.805925814723096 -37.12732408060347 6.277867632795747 -0.09648575563547075 58.082953226295785 -17.529489019802043 5.586321128317741 -21.885031000659033 -3.431166548586218 0.015309110093097803 0.023211064507841696 0.015989824518621285
